<?xml version="1.0" encoding="utf-8"?><!-- Uploaded to: SVG Repo, www.svgrepo.com, Generator: SVG Repo Mixer Tools -->
<svg width="800px" height="800px" viewBox="0 0 16 16" xmlns="http://www.w3.org/2000/svg">
  <path d="M5 8a1 1 0 00-1 1v1a1 1 0 102 0V9a1 1 0 00-1-1zm2-1a1 1 0 012 0v3a1 1 0 11-2 0V7zm4 2a1 1 0 100 2 1 1 0 000-2z" fill="#ff0072"/>
  <path fill-rule="evenodd" clip-rule="evenodd" d="M15 6.828a2 2 0 00-.586-1.414l-2.828-2.828A2 2 0 0010.172 2H2a1 1 0 00-1 1v10a1 1 0 001 1h12a1 1 0 001-1V6.828zM3 4h7v2a1 1 0 001 1h2v5H3V4z" fill="#ff0072"/>
</svg>